<svg xmlns="http://www.w3.org/2000/svg" viewBox="0 0 64 64" role="img" aria-label="BifrostUMI">
  <rect width="64" height="64" rx="12" fill="#202734"/>
  <path d="M18 47V17h15.4c3.7 0 6.6.7 8.6 2.1 2 1.4 3 3.5 3 6.1 0 1.5-.4 2.9-1.3 4.1-.8 1.2-2 2.1-3.6 2.6 1.9.4 3.4 1.2 4.4 2.5 1 1.3 1.5 2.8 1.5 4.7 0 2.8-1 5-3.1 6.5-2 1.5-5 2.3-8.8 2.3H18Zm7.2-17.7h7.5c3.4 0 5.1-1.1 5.1-3.4 0-1.3-.4-2.2-1.2-2.8-.8-.6-2-.9-3.7-.9h-7.7v7.1Zm0 5.1v7.3h8.7c1.6 0 2.8-.3 3.6-.9.8-.6 1.2-1.5 1.2-2.7 0-2.5-1.5-3.7-4.6-3.7h-8.9Z" fill="#ffffff"/>
</svg>
